<?xml version="1.0" encoding="UTF-8"?>
<svg id="Layer_1" data-name="Layer 1" xmlns="http://www.w3.org/2000/svg" viewBox="0 0 469.33 512.05">
  <defs>
    <style>
      .cls-1 {
        fill: #fff;
      }
    </style>
  </defs>
  <path class="cls-1" d="m263.04,7.9c-17.51-10.52-39.32-10.54-56.85,0L0,131.03v250.01l206.17,123.11c8.77,5.27,18.62,7.89,28.44,7.89s19.65-2.62,28.42-7.87l206.31-123.14v-250.01L263.04,7.9ZM113.39,206.74L21.33,341.72v-186.45l92.05,51.46v.02ZM235.86,34.93l87.34,157.1h-176.79L235.86,34.93Zm-89.51,178.43h176.62l-88.34,154.94-88.26-154.94h-.02Zm-18.71,10.26l86.04,151.04-177.83-16.36,91.8-134.68h0Zm214.02.04l94.1,134.63-180.07,16.09,85.97-150.72h0Zm14.17-16.85l92.16-51.52v183.3l-92.16-131.8v.02Zm81.49-70.02l-91.93,51.39L257.09,29.21l180.25,107.58h-.02ZM215.87,26.95l-91.82,161.3-92.05-51.46L215.87,26.95ZM40.09,380.1l183.85,16.77.04,91.93c-2.35-.79-4.69-1.64-6.87-2.97l-177.02-105.73Zm211.99,105.77c-2.13,1.28-4.44,2.11-6.74,2.88l-.04-92.18,183.62-16.26-176.83,105.56h0Z"/>
</svg>